<svg width="294" height="218" viewBox="0 0 294 218" fill="none" xmlns="http://www.w3.org/2000/svg">
<g clip-path="url(#clip0_28_1476)">
<path d="M125.331 147.227C125.331 147.227 164.374 142.542 178.04 135.124C191.705 127.705 293.219 124.192 293.219 147.227C293.219 170.263 176.478 180.415 176.478 180.415L115.179 176.901L125.331 147.227Z" fill="#FBBEBE"/>
<path opacity="0.1" d="M125.331 147.227C125.331 147.227 164.374 142.542 178.04 135.124C191.705 127.705 293.219 124.192 293.219 147.227C293.219 170.263 176.478 180.415 176.478 180.415L115.179 176.901L125.331 147.227Z" fill="black"/>
<path d="M136.653 142.932L128.454 166.749L0 168.311V133.171C0 133.171 49.1952 121.849 88.2391 146.056C88.2391 146.056 134.311 140.59 136.653 142.932Z" fill="#C7F2A4"/>
<path opacity="0.1" d="M136.653 142.894L128.454 166.711L0 168.273V133.133C0 133.133 49.1952 121.81 88.2391 146.018C88.2391 146.018 134.311 140.551 136.653 142.894Z" fill="black"/>
<path d="M283.516 132.976C283.516 134.307 280.532 135.295 280.238 136.579C279.947 137.852 281.72 139.788 281.159 141.004C280.579 142.247 279.894 143.439 279.111 144.565C278.376 145.618 276.106 145.464 275.175 146.451C274.263 147.347 273.298 148.187 272.284 148.965C271.296 149.786 269.958 149.959 268.835 150.715C267.767 151.434 267.896 154.072 266.714 154.726C265.585 155.352 263.857 154.849 262.633 155.411C261.457 155.951 260.837 157.903 259.581 158.381C258.369 158.841 256.869 158.643 255.588 159.042C254.348 159.428 252.96 159.365 251.661 159.69C250.399 160.006 249.435 161.897 248.123 162.152C246.844 162.401 245.345 161.738 244.023 161.926C242.731 162.11 241.23 160.476 239.901 160.599C238.601 160.721 237.376 161.477 236.044 161.538C234.738 161.598 233.448 162.173 232.116 162.173C230.784 162.173 229.41 163.423 228.104 163.363C226.772 163.302 225.567 161.408 224.267 161.287C222.938 161.163 221.354 163.141 220.062 162.957C218.74 162.769 217.692 160.833 216.414 160.585C215.101 160.329 213.405 161.713 212.143 161.398C210.843 161.073 210.072 158.82 208.832 158.434C207.551 158.035 205.962 158.575 204.751 158.115C203.494 157.637 201.963 157.714 200.787 157.174C199.562 156.612 198.683 155.281 197.555 154.655C196.373 154 195.828 152.376 194.76 151.657C193.637 150.901 191.926 150.997 190.938 150.176C189.895 149.308 187.941 149.263 187.061 148.33C186.13 147.343 185.753 145.686 185.018 144.633C184.244 143.525 185.763 141.181 185.223 140.01C184.662 138.794 182.317 138.3 182.027 137.027C181.726 135.698 181.572 134.339 181.567 132.976C181.567 131.646 183.572 130.629 183.866 129.345C184.157 128.072 182.681 126.243 183.242 125.027C183.783 123.856 183.714 122.054 184.488 120.946C185.223 119.894 187.057 119.481 187.988 118.494C188.868 117.561 190.443 117.301 191.486 116.433C192.474 115.612 192.348 113.135 193.471 112.378C194.539 111.659 196.031 111.331 197.212 110.676C198.341 110.051 199.938 110.156 201.163 109.594C202.338 109.054 204.18 110.118 205.436 109.64C206.648 109.18 207.631 108.173 208.912 107.774C210.152 107.388 210.735 104.445 212.034 104.12C213.296 103.804 214.849 104.328 216.161 104.073C217.44 103.824 219.161 106.147 220.483 105.959C221.775 105.775 222.741 102.674 224.069 102.551C225.369 102.43 226.835 104.036 228.167 103.974C229.473 103.914 230.784 104.855 232.116 104.855C233.447 104.855 234.774 103.564 236.08 103.624C237.411 103.685 238.585 105.392 239.886 105.513C241.214 105.636 242.845 103.041 244.136 103.224C245.459 103.413 246.481 105.419 247.759 105.668C249.072 105.923 250.717 104.677 251.979 104.993C253.278 105.318 254.06 107.45 255.3 107.836C256.582 108.235 257.371 109.74 258.583 110.2C259.84 110.678 262.174 108.443 263.35 108.983C264.575 109.546 265.632 110.519 266.761 111.145C267.943 111.8 269.821 111.47 270.889 112.19C272.012 112.946 272.288 114.976 273.276 115.798C274.319 116.665 276.039 116.926 276.92 117.859C277.85 118.847 277.98 120.615 278.715 121.668C279.489 122.776 279.464 124.312 280.005 125.483C280.566 126.699 282.063 127.619 282.354 128.892C282.647 130.175 283.516 131.646 283.516 132.976Z" fill="#3F3D56"/>
<path d="M142.9 157.379C142.9 157.379 187.02 134.733 215.522 143.323C244.024 151.913 283.849 137.076 288.534 142.152C293.219 147.227 299.857 201.889 243.633 205.012C187.41 208.136 139.386 195.642 139.386 195.642L142.9 157.379Z" fill="#FBBEBE"/>
<path d="M132.51 154.967C132.51 154.967 149.928 153.865 149.147 160.112C148.367 166.359 147.586 214.773 142.9 215.945C138.215 217.116 101.124 217.116 85.8964 217.116H0V142.264C0 142.264 60.9084 138.638 91.3626 153.865C91.3626 153.865 127.977 153.336 132.51 154.967Z" fill="#C7F2A4"/>
<path d="M214.109 37.8879C212.444 37.9819 210.839 38.5377 209.473 39.4929C208.107 40.4481 207.034 41.765 206.374 43.2959C204.44 47.9709 206.93 53.4624 210.669 56.8715C214.407 60.2806 219.209 62.2292 223.572 64.7905C229.432 68.2308 234.698 73.0065 237.63 79.1367C240.563 85.267 240.875 92.8607 237.428 98.7172C234.229 104.153 228.412 107.406 222.864 110.407" stroke="#3F3D56" stroke-width="0.331828" stroke-miterlimit="10"/>
<path d="M229.726 9.38599C228.062 9.48 226.457 10.0358 225.091 10.991C223.724 11.9462 222.651 13.263 221.992 14.7939C220.058 19.469 222.548 24.9605 226.286 28.3696C230.024 31.7787 234.826 33.7273 239.189 36.2886C245.05 39.7288 250.316 44.5045 253.248 50.6348C256.18 56.7651 256.492 64.3587 253.045 70.2152C249.846 75.6511 244.029 78.9044 238.481 81.9048" stroke="#3F3D56" stroke-width="0.331828" stroke-miterlimit="10"/>
<path d="M281.075 15.9414C279.702 14.9969 278.092 14.4537 276.427 14.3727C274.762 14.2916 273.108 14.676 271.649 15.4827C267.258 17.9954 265.865 23.8621 266.734 28.8462C267.603 33.8303 270.207 38.3108 272.089 43.007C274.617 49.3149 275.857 56.3148 274.423 62.9572C272.989 69.5996 268.587 75.7949 262.276 78.3158C256.419 80.6556 249.828 79.667 243.604 78.6432" stroke="#3F3D56" stroke-width="0.331828" stroke-miterlimit="10"/>
<path d="M235.825 74.8623C241 74.8623 245.195 72.8246 245.195 70.3109C245.195 67.7973 241 65.7595 235.825 65.7595C230.649 65.7595 226.454 67.7973 226.454 70.3109C226.454 72.8246 230.649 74.8623 235.825 74.8623Z" fill="#57B894"/>
<path d="M234.653 74.0816C239.829 74.0816 244.024 72.0438 244.024 69.5302C244.024 67.0165 239.829 64.9788 234.653 64.9788C229.478 64.9788 225.283 67.0165 225.283 69.5302C225.283 72.0438 229.478 74.0816 234.653 74.0816Z" stroke="#3F3D56" stroke-width="0.331828" stroke-miterlimit="10"/>
<path d="M256.127 70.958C261.303 70.958 265.498 68.9203 265.498 66.4066C265.498 63.893 261.303 61.8552 256.127 61.8552C250.952 61.8552 246.757 63.893 246.757 66.4066C246.757 68.9203 250.952 70.958 256.127 70.958Z" fill="#57B894"/>
<path d="M254.956 70.177C260.131 70.177 264.327 68.1393 264.327 65.6256C264.327 63.1119 260.131 61.0742 254.956 61.0742C249.781 61.0742 245.586 63.1119 245.586 65.6256C245.586 68.1393 249.781 70.177 254.956 70.177Z" stroke="#3F3D56" stroke-width="0.331828" stroke-miterlimit="10"/>
<path d="M259.251 88.1375C264.426 88.1375 268.622 86.0997 268.622 83.5861C268.622 81.0724 264.426 79.0347 259.251 79.0347C254.076 79.0347 249.88 81.0724 249.88 83.5861C249.88 86.0997 254.076 88.1375 259.251 88.1375Z" fill="#57B894"/>
<path d="M258.08 87.3564C263.255 87.3564 267.45 85.3187 267.45 82.8051C267.45 80.2914 263.255 78.2537 258.08 78.2537C252.904 78.2537 248.709 80.2914 248.709 82.8051C248.709 85.3187 252.904 87.3564 258.08 87.3564Z" stroke="#3F3D56" stroke-width="0.331828" stroke-miterlimit="10"/>
<path d="M257.299 45.1892C262.474 45.1892 266.669 43.1515 266.669 40.6378C266.669 38.1242 262.474 36.0864 257.299 36.0864C252.124 36.0864 247.928 38.1242 247.928 40.6378C247.928 43.1515 252.124 45.1892 257.299 45.1892Z" fill="#57B894"/>
<path d="M256.127 44.4082C261.303 44.4082 265.498 42.3705 265.498 39.8568C265.498 37.3431 261.303 35.3054 256.127 35.3054C250.952 35.3054 246.757 37.3431 246.757 39.8568C246.757 42.3705 250.952 44.4082 256.127 44.4082Z" stroke="#3F3D56" stroke-width="0.331828" stroke-miterlimit="10"/>
<path d="M233.873 42.4561C239.048 42.4561 243.243 40.4183 243.243 37.9047C243.243 35.391 239.048 33.3533 233.873 33.3533C228.697 33.3533 224.502 35.391 224.502 37.9047C224.502 40.4183 228.697 42.4561 233.873 42.4561Z" fill="#57B894"/>
<path d="M232.701 41.6751C237.876 41.6751 242.072 39.6373 242.072 37.1237C242.072 34.61 237.876 32.5723 232.701 32.5723C227.526 32.5723 223.331 34.61 223.331 37.1237C223.331 39.6373 227.526 41.6751 232.701 41.6751Z" stroke="#3F3D56" stroke-width="0.331828" stroke-miterlimit="10"/>
<path d="M244.414 32.6951C249.59 32.6951 253.785 30.6573 253.785 28.1437C253.785 25.63 249.59 23.5923 244.414 23.5923C239.239 23.5923 235.044 25.63 235.044 28.1437C235.044 30.6573 239.239 32.6951 244.414 32.6951Z" fill="#57B894"/>
<path d="M243.243 31.9143C248.418 31.9143 252.614 29.8766 252.614 27.3629C252.614 24.8493 248.418 22.8115 243.243 22.8115C238.068 22.8115 233.872 24.8493 233.872 27.3629C233.872 29.8766 238.068 31.9143 243.243 31.9143Z" stroke="#3F3D56" stroke-width="0.331828" stroke-miterlimit="10"/>
<path d="M267.45 34.6472C272.625 34.6472 276.821 32.6095 276.821 30.0958C276.821 27.5822 272.625 25.5444 267.45 25.5444C262.275 25.5444 258.08 27.5822 258.08 30.0958C258.08 32.6095 262.275 34.6472 267.45 34.6472Z" fill="#57B894"/>
<path d="M266.279 33.8665C271.454 33.8665 275.649 31.8287 275.649 29.3151C275.649 26.8014 271.454 24.7637 266.279 24.7637C261.104 24.7637 256.908 26.8014 256.908 29.3151C256.908 31.8287 261.104 33.8665 266.279 33.8665Z" stroke="#3F3D56" stroke-width="0.331828" stroke-miterlimit="10"/>
<path d="M284.63 47.5317C289.805 47.5317 294 45.494 294 42.9804C294 40.4667 289.805 38.429 284.63 38.429C279.454 38.429 275.259 40.4667 275.259 42.9804C275.259 45.494 279.454 47.5317 284.63 47.5317Z" fill="#57B894"/>
<path d="M283.458 46.7507C288.633 46.7507 292.829 44.713 292.829 42.1993C292.829 39.6857 288.633 37.6479 283.458 37.6479C278.283 37.6479 274.088 39.6857 274.088 42.1993C274.088 44.713 278.283 46.7507 283.458 46.7507Z" stroke="#3F3D56" stroke-width="0.331828" stroke-miterlimit="10"/>
<path d="M224.112 24.8862C229.287 24.8862 233.482 22.8485 233.482 20.3348C233.482 17.8212 229.287 15.7834 224.112 15.7834C218.936 15.7834 214.741 17.8212 214.741 20.3348C214.741 22.8485 218.936 24.8862 224.112 24.8862Z" fill="#57B894"/>
<path d="M222.94 24.1055C228.115 24.1055 232.311 22.0677 232.311 19.5541C232.311 17.0404 228.115 15.0027 222.94 15.0027C217.765 15.0027 213.57 17.0404 213.57 19.5541C213.57 22.0677 217.765 24.1055 222.94 24.1055Z" stroke="#3F3D56" stroke-width="0.331828" stroke-miterlimit="10"/>
<path d="M229.968 10.0496C235.143 10.0496 239.339 8.01184 239.339 5.49817C239.339 2.98451 235.143 0.946777 229.968 0.946777C224.793 0.946777 220.598 2.98451 220.598 5.49817C220.598 8.01184 224.793 10.0496 229.968 10.0496Z" fill="#57B894"/>
<path d="M228.797 9.26881C233.972 9.26881 238.167 7.23108 238.167 4.71741C238.167 2.20374 233.972 0.166016 228.797 0.166016C223.622 0.166016 219.426 2.20374 219.426 4.71741C219.426 7.23108 223.622 9.26881 228.797 9.26881Z" stroke="#3F3D56" stroke-width="0.331828" stroke-miterlimit="10"/>
<path d="M284.239 20.9819C289.414 20.9819 293.61 18.9442 293.61 16.4305C293.61 13.9169 289.414 11.8792 284.239 11.8792C279.064 11.8792 274.869 13.9169 274.869 16.4305C274.869 18.9442 279.064 20.9819 284.239 20.9819Z" fill="#57B894"/>
<path d="M283.068 20.2009C288.243 20.2009 292.438 18.1632 292.438 15.6495C292.438 13.1359 288.243 11.0981 283.068 11.0981C277.893 11.0981 273.697 13.1359 273.697 15.6495C273.697 18.1632 277.893 20.2009 283.068 20.2009Z" stroke="#3F3D56" stroke-width="0.331828" stroke-miterlimit="10"/>
<path d="M197.952 56.9023C203.127 56.9023 207.323 54.8646 207.323 52.351C207.323 49.8373 203.127 47.7996 197.952 47.7996C192.777 47.7996 188.582 49.8373 188.582 52.351C188.582 54.8646 192.777 56.9023 197.952 56.9023Z" fill="#57B894"/>
<path d="M196.781 56.1213C201.956 56.1213 206.151 54.0836 206.151 51.57C206.151 49.0563 201.956 47.0186 196.781 47.0186C191.606 47.0186 187.41 49.0563 187.41 51.57C187.41 54.0836 191.606 56.1213 196.781 56.1213Z" stroke="#3F3D56" stroke-width="0.331828" stroke-miterlimit="10"/>
<path d="M230.359 54.5596C235.534 54.5596 239.729 52.5218 239.729 50.0082C239.729 47.4945 235.534 45.4568 230.359 45.4568C225.183 45.4568 220.988 47.4945 220.988 50.0082C220.988 52.5218 225.183 54.5596 230.359 54.5596Z" fill="#57B894"/>
<path d="M229.187 53.7788C234.362 53.7788 238.558 51.7411 238.558 49.2274C238.558 46.7137 234.362 44.676 229.187 44.676C224.012 44.676 219.817 46.7137 219.817 49.2274C219.817 51.7411 224.012 53.7788 229.187 53.7788Z" stroke="#3F3D56" stroke-width="0.331828" stroke-miterlimit="10"/>
<path d="M272.916 58.0735C278.091 58.0735 282.287 56.0358 282.287 53.5221C282.287 51.0084 278.091 48.9707 272.916 48.9707C267.741 48.9707 263.546 51.0084 263.546 53.5221C263.546 56.0358 267.741 58.0735 272.916 58.0735Z" fill="#57B894"/>
<path d="M271.745 57.2927C276.92 57.2927 281.116 55.255 281.116 52.7413C281.116 50.2277 276.92 48.1899 271.745 48.1899C266.57 48.1899 262.375 50.2277 262.375 52.7413C262.375 55.255 266.57 57.2927 271.745 57.2927Z" stroke="#3F3D56" stroke-width="0.331828" stroke-miterlimit="10"/>
<path d="M250.271 59.6353C255.446 59.6353 259.641 57.5975 259.641 55.0839C259.641 52.5702 255.446 50.5325 250.271 50.5325C245.096 50.5325 240.9 52.5702 240.9 55.0839C240.9 57.5975 245.096 59.6353 250.271 59.6353Z" fill="#57B894"/>
<path d="M249.1 58.8545C254.275 58.8545 258.47 56.8168 258.47 54.3031C258.47 51.7894 254.275 49.7517 249.1 49.7517C243.924 49.7517 239.729 51.7894 239.729 54.3031C239.729 56.8168 243.924 58.8545 249.1 58.8545Z" stroke="#3F3D56" stroke-width="0.331828" stroke-miterlimit="10"/>
<path d="M251.833 20.5916C257.008 20.5916 261.203 18.5538 261.203 16.0402C261.203 13.5265 257.008 11.4888 251.833 11.4888C246.657 11.4888 242.462 13.5265 242.462 16.0402C242.462 18.5538 246.657 20.5916 251.833 20.5916Z" fill="#57B894"/>
<path d="M250.661 19.8106C255.837 19.8106 260.032 17.7728 260.032 15.2592C260.032 12.7455 255.837 10.7078 250.661 10.7078C245.486 10.7078 241.291 12.7455 241.291 15.2592C241.291 17.7728 245.486 19.8106 250.661 19.8106Z" stroke="#3F3D56" stroke-width="0.331828" stroke-miterlimit="10"/>
<path d="M211.618 44.7986C216.793 44.7986 220.988 42.7609 220.988 40.2472C220.988 37.7335 216.793 35.6958 211.618 35.6958C206.442 35.6958 202.247 37.7335 202.247 40.2472C202.247 42.7609 206.442 44.7986 211.618 44.7986Z" fill="#57B894"/>
<path d="M210.446 44.0178C215.621 44.0178 219.817 41.9801 219.817 39.4664C219.817 36.9528 215.621 34.915 210.446 34.915C205.271 34.915 201.076 36.9528 201.076 39.4664C201.076 41.9801 205.271 44.0178 210.446 44.0178Z" stroke="#3F3D56" stroke-width="0.331828" stroke-miterlimit="10"/>
<path d="M217.084 62.3684C222.259 62.3684 226.454 60.3307 226.454 57.817C226.454 55.3034 222.259 53.2656 217.084 53.2656C211.908 53.2656 207.713 55.3034 207.713 57.817C207.713 60.3307 211.908 62.3684 217.084 62.3684Z" fill="#57B894"/>
<path d="M215.912 61.5874C221.088 61.5874 225.283 59.5497 225.283 57.036C225.283 54.5223 221.088 52.4846 215.912 52.4846C210.737 52.4846 206.542 54.5223 206.542 57.036C206.542 59.5497 210.737 61.5874 215.912 61.5874Z" stroke="#3F3D56" stroke-width="0.331828" stroke-miterlimit="10"/>
<g opacity="0.3">
<path d="M217.302 88.8941C218.624 86.5274 218.866 84.1445 217.841 83.5716C216.816 82.9988 214.913 84.453 213.59 86.8197C212.267 89.1864 212.026 91.5693 213.051 92.1422C214.076 92.715 215.979 91.2608 217.302 88.8941Z" fill="#57B894"/>
<path d="M216.684 89.2518C218.007 86.8851 218.248 84.5021 217.223 83.9293C216.198 83.3565 214.295 84.8107 212.972 87.1774C211.65 89.5441 211.408 91.927 212.433 92.4998C213.458 93.0727 215.361 91.6184 216.684 89.2518Z" stroke="#3F3D56" stroke-width="0.331828" stroke-miterlimit="10"/>
</g>
<g opacity="0.3">
<path d="M266.145 100.24C266.928 99.3648 265.925 97.1898 263.905 95.3817C261.884 93.5735 259.612 92.817 258.829 93.692C258.046 94.5669 259.049 96.7419 261.069 98.55C263.089 100.358 265.362 101.115 266.145 100.24Z" fill="#57B894"/>
<path d="M265.931 99.5585C266.714 98.6836 265.711 96.5086 263.691 94.7005C261.671 92.8924 259.398 92.1359 258.615 93.0108C257.832 93.8857 258.835 96.0607 260.855 97.8689C262.875 99.677 265.148 100.433 265.931 99.5585Z" stroke="#3F3D56" stroke-width="0.331828" stroke-miterlimit="10"/>
</g>
<g opacity="0.3">
<path d="M222.416 75.642C223.199 74.7671 222.196 72.5921 220.176 70.784C218.155 68.9759 215.883 68.2194 215.1 69.0943C214.317 69.9692 215.32 72.1442 217.34 73.9523C219.36 75.7605 221.633 76.517 222.416 75.642Z" fill="#57B894"/>
<path d="M222.202 74.9611C222.985 74.0862 221.982 71.9112 219.962 70.1031C217.941 68.295 215.669 67.5385 214.886 68.4134C214.103 69.2883 215.106 71.4633 217.126 73.2714C219.146 75.0795 221.419 75.836 222.202 74.9611Z" stroke="#3F3D56" stroke-width="0.331828" stroke-miterlimit="10"/>
</g>
</g>
<defs>
<clipPath id="clip0_28_1476">
<rect width="294" height="217.116" fill="white"/>
</clipPath>
</defs>
</svg>
