<svg width="30" height="30" viewBox="0 0 30 30" fill="none" xmlns="http://www.w3.org/2000/svg">
<g clip-path="url(#clip0_24_545)">
<path d="M0 10.4452C0 21.0798 0 21.117 0.510836 22.6681C0.975232 24.1077 1.74613 25.3059 2.90712 26.4204C4.46749 27.9158 6.21362 28.7703 8.55418 29.1975C9.76161 29.4204 12.1672 29.4111 13.4211 29.1882C17.3684 28.4916 20.2941 26.1232 21.4365 22.7052C21.5944 22.2501 21.7245 21.8693 21.743 21.86C21.7616 21.8415 22.8669 23.4018 24.2043 25.3244L26.6285 28.8167L28.3096 28.8446L30 28.8631V14.7455V0.627838H28.3282H26.6563V11.7269C26.6563 22.408 26.6471 22.826 26.4892 22.826C26.3684 22.826 25.6625 21.8786 24.1672 19.7238L22.0124 16.6216V8.62474V0.627838H20.2941H18.5759L18.5573 6.117L18.5294 11.6155L14.7214 6.12629L10.9133 0.637125L9.22291 0.627838H7.52322V13.0737C7.52322 19.9189 7.49536 25.5195 7.46749 25.5195C7.3096 25.5195 6.29721 24.9065 5.86068 24.5535C5.14551 23.9684 4.58824 23.2625 4.17957 22.408C3.43653 20.8755 3.49226 21.7393 3.4644 10.5845L3.42724 0.627838H1.71827H0V10.4452ZM14.935 11.9591L18.5851 17.2068L18.548 18.7857C18.4923 20.6433 18.3251 21.4049 17.7214 22.5659C16.6347 24.665 14.517 25.9467 11.8328 26.1325L10.9598 26.1975V16.4266C10.9598 7.16654 10.969 6.6557 11.1269 6.68356C11.2198 6.70214 12.8452 8.95911 14.935 11.9591Z" fill="white"/>
</g>
<defs>
<clipPath id="clip0_24_545">
<rect width="30" height="30" fill="white"/>
</clipPath>
</defs>
</svg>
