<svg width="430" height="430" viewBox="0 0 430 430" fill="none" xmlns="http://www.w3.org/2000/svg">
<path d="M0 149.715C0 302.146 0 302.678 7.32198 324.91C13.9783 345.545 25.0279 362.718 41.6687 378.694C64.034 400.127 89.0619 412.375 122.61 418.498C139.916 421.694 174.396 421.56 192.368 418.365C248.947 408.381 290.882 374.433 307.257 325.443C309.52 318.92 311.384 313.461 311.65 313.328C311.916 313.062 327.759 335.427 346.929 362.985L381.675 413.04L405.771 413.44L430 413.706V211.353V9.00003H406.037H382.074V168.087C382.074 321.183 381.941 327.173 379.678 327.173C377.947 327.173 367.83 313.594 346.396 282.709L315.511 238.245V123.622V9.00003H290.882H266.254L265.988 87.678L265.588 166.489L211.006 87.8112L156.424 9.13315L132.195 9.00003H107.833V187.39C107.833 285.505 107.433 365.78 107.034 365.78C104.771 365.78 90.2601 356.994 84.0031 351.935C73.7523 343.548 65.7647 333.43 59.9071 321.183C49.257 299.217 50.0557 311.598 49.6563 151.712L49.1238 9.00003H24.6285H0V149.715ZM214.068 171.415L266.387 246.632L265.854 269.263C265.056 295.889 262.659 306.805 254.006 323.446C238.43 353.533 208.077 371.904 169.604 374.567L157.09 375.498V235.449C157.09 102.721 157.223 95.3994 159.486 95.7988C160.817 96.065 184.115 128.415 214.068 171.415Z" fill="#B6E388"/>
</svg>
